<svg width="100" height="100" viewBox="0 0 100 100" fill="none" xmlns="http://www.w3.org/2000/svg">
<path d="M50 0C22.387 0 0 22.387 0 50C0 77.613 22.387 100 50 100C77.613 100 100 77.613 100 50C100 22.387 77.613 0 50 0ZM58.488 70.3582C58.8602 70.7118 59.1578 71.1363 59.3633 71.6067C59.5688 72.0772 59.6781 72.584 59.6847 73.0973C59.6913 73.6106 59.595 74.1201 59.4016 74.5956C59.2082 75.0712 58.9215 75.5032 58.5585 75.8662C58.1955 76.2292 57.7635 76.5159 57.2879 76.7093C56.8124 76.9027 56.3029 76.999 55.7896 76.9924C55.2763 76.9858 54.7695 76.8765 54.299 76.671C53.8286 76.4655 53.4041 76.1679 53.0505 75.7957L29.9736 52.7187C29.2528 51.9975 28.8479 51.0196 28.8479 50C28.8479 48.9804 29.2528 48.0025 29.9736 47.2812L53.0505 24.2043C53.7776 23.5135 54.7459 23.134 55.7488 23.1469C56.7518 23.1597 57.71 23.5638 58.4192 24.2731C59.1285 24.9823 59.5326 25.9405 59.5454 26.9435C59.5583 27.9464 59.1788 28.9147 58.488 29.6418L38.1322 50L58.488 70.3582Z" fill="#06A4FD"/>
</svg>
