<svg width="100" height="100" viewBox="0 0 100 100" fill="none" xmlns="http://www.w3.org/2000/svg">
<path fill-rule="evenodd" clip-rule="evenodd" d="M75.5451 27.8231C77.1716 29.1893 77.3826 31.6154 76.0163 33.2419L43.7087 71.7035C42.9926 72.5559 41.9424 73.0562 40.8293 73.0752C39.7162 73.0943 38.6495 72.6301 37.9048 71.8026L24.0587 56.418C22.6377 54.8391 22.7656 52.4072 24.3445 50.9862C25.9234 49.5652 28.3553 49.6932 29.7763 51.2721L40.6635 63.369L70.1263 28.2943C71.4926 26.6678 73.9186 26.4568 75.5451 27.8231Z" fill="#06A4FD"/>
<path fill-rule="evenodd" clip-rule="evenodd" d="M15.3846 7.69231C11.1363 7.69231 7.69231 11.1363 7.69231 15.3846V84.6154C7.69231 88.8637 11.1363 92.3077 15.3846 92.3077H84.6154C88.8637 92.3077 92.3077 88.8637 92.3077 84.6154V15.3846C92.3077 11.1363 88.8637 7.69231 84.6154 7.69231H15.3846ZM0 15.3846C0 6.88793 6.88793 0 15.3846 0H84.6154C93.1121 0 100 6.88793 100 15.3846V84.6154C100 93.1121 93.1121 100 84.6154 100H15.3846C6.88793 100 0 93.1121 0 84.6154V15.3846Z" fill="#06A4FD"/>
</svg>
