<svg width="53" height="53" viewBox="0 0 53 53" fill="none" xmlns="http://www.w3.org/2000/svg">
<path fill-rule="evenodd" clip-rule="evenodd" d="M40.0387 14.7467C40.9007 15.4708 41.0125 16.7566 40.2884 17.6187L23.1653 38.0033C22.7858 38.4551 22.2292 38.7203 21.6393 38.7303C21.0494 38.7404 20.484 38.4944 20.0893 38.0558L12.7508 29.902C11.9977 29.0652 12.0656 27.7763 12.9024 27.0231C13.7392 26.27 15.0281 26.3379 15.7812 27.1747L21.5514 33.586L37.1667 14.9964C37.8908 14.1344 39.1766 14.0226 40.0387 14.7467Z" fill="#06A4FD"/>
<path fill-rule="evenodd" clip-rule="evenodd" d="M8.15385 4.07692C5.90222 4.07692 4.07692 5.90222 4.07692 8.15385V44.8462C4.07692 47.0978 5.90222 48.9231 8.15385 48.9231H44.8462C47.0978 48.9231 48.9231 47.0978 48.9231 44.8462V8.15385C48.9231 5.90222 47.0978 4.07692 44.8462 4.07692H8.15385ZM0 8.15385C0 3.6506 3.6506 0 8.15385 0H44.8462C49.3494 0 53 3.6506 53 8.15385V44.8462C53 49.3494 49.3494 53 44.8462 53H8.15385C3.6506 53 0 49.3494 0 44.8462V8.15385Z" fill="#06A4FD"/>
</svg>
