<svg width="100" height="100" viewBox="0 0 100 100" fill="none" xmlns="http://www.w3.org/2000/svg">
<path fill-rule="evenodd" clip-rule="evenodd" d="M17.8568 0L17.8463 1.55395e-05C13.1175 0.0139922 8.5863 1.89871 5.2425 5.2425C1.89871 8.5863 0.0139922 13.1175 1.55395e-05 17.8463L0 17.8568V66.0703L1.44752e-05 66.0804C0.0121223 70.3363 1.70814 74.4145 4.71754 77.4239C7.72693 80.4333 11.8051 82.1293 16.061 82.1414L16.0711 82.1414H17.8548V83.7019C17.8548 92.701 25.1501 99.9962 34.1492 99.9962H83.7019C92.701 99.9962 99.9962 92.701 99.9962 83.7019V34.1492C99.9962 25.1501 92.701 17.8548 83.7019 17.8548H82.105L82.1406 16.1455C82.1412 16.1174 82.1415 16.0892 82.1414 16.061C82.1293 11.8051 80.4333 7.72693 77.4239 4.71754C74.4145 1.70814 70.3363 0.0121223 66.0804 1.44752e-05L66.0703 0H17.8568ZM78.3384 24.9976C78.3536 24.9981 78.3688 24.9985 78.3841 24.9988C78.4502 25.0002 78.5159 24.9997 78.5812 24.9976H83.7019C88.7562 24.9976 92.8535 29.0949 92.8535 34.1492V83.7019C92.8535 88.7562 88.7562 92.8535 83.7019 92.8535H34.1492C29.0949 92.8535 24.9976 88.7562 24.9976 83.7019V78.6911C24.9989 78.6509 24.9996 78.6106 24.9996 78.5701C24.9996 78.5295 24.9989 78.4892 24.9976 78.449V34.1492C24.9976 29.0949 29.0949 24.9976 34.1492 24.9976H78.3384ZM74.9608 17.8548L74.9985 16.0427C74.9817 13.688 74.0389 11.434 72.3732 9.76821C70.6995 8.09446 68.4317 7.1507 66.0648 7.14273H17.8625C15.0225 7.15241 12.3015 8.28488 10.2932 10.2932C8.28488 12.3015 7.15241 15.0225 7.14273 17.8625V66.0648C7.1507 68.4317 8.09446 70.6995 9.76821 72.3732C11.442 74.047 13.7099 74.9908 16.0769 74.9987H17.8548V34.1492C17.8548 25.1501 25.1501 17.8548 34.1492 17.8548H74.9608Z" fill="#06A4FD"/>
</svg>
