<svg width="100" height="100" viewBox="0 0 100 100" fill="none" xmlns="http://www.w3.org/2000/svg">
<path d="M50 0C22.4303 0 0 22.4303 0 50C0 77.5697 22.4303 100 50 100C77.5697 100 100 77.5697 100 50C100 22.4303 77.5697 0 50 0ZM68.1034 62.6659C68.4755 63.0195 68.7732 63.444 68.9787 63.9144C69.1842 64.3849 69.2935 64.8917 69.3001 65.405C69.3066 65.9183 69.2104 66.4278 69.017 66.9033C68.8236 67.3789 68.5369 67.8109 68.1739 68.1739C67.8109 68.5369 67.3789 68.8236 66.9033 69.017C66.4278 69.2104 65.9183 69.3066 65.405 69.3001C64.8917 69.2935 64.3849 69.1842 63.9144 68.9787C63.444 68.7732 63.0195 68.4755 62.6659 68.1034L50 55.4399L37.3341 68.1034C36.607 68.7942 35.6387 69.1737 34.6358 69.1608C33.6328 69.148 32.6746 68.7439 31.9654 68.0346C31.2561 67.3254 30.852 66.3672 30.8392 65.3642C30.8263 64.3613 31.2058 63.393 31.8966 62.6659L44.5601 50L31.8966 37.3341C31.2058 36.607 30.8263 35.6387 30.8392 34.6358C30.852 33.6328 31.2561 32.6746 31.9654 31.9654C32.6746 31.2561 33.6328 30.852 34.6358 30.8392C35.6387 30.8263 36.607 31.2058 37.3341 31.8966L50 44.5601L62.6659 31.8966C63.393 31.2058 64.3613 30.8263 65.3642 30.8392C66.3672 30.852 67.3254 31.2561 68.0346 31.9654C68.7439 32.6746 69.148 33.6328 69.1608 34.6358C69.1737 35.6387 68.7942 36.607 68.1034 37.3341L55.4399 50L68.1034 62.6659Z" fill="#FF3D3D"/>
</svg>
