<svg width="100" height="100" viewBox="0 0 100 100" fill="none" xmlns="http://www.w3.org/2000/svg">
<path fill-rule="evenodd" clip-rule="evenodd" d="M13.4612 23.0789C11.9312 23.0789 10.4638 23.6867 9.38186 24.7686C8.29995 25.8505 7.69213 27.3179 7.69213 28.848V86.5389C7.69213 88.069 8.29995 89.5364 9.38186 90.6183C10.4638 91.7002 11.9312 92.308 13.4612 92.308H71.1522C71.9098 92.308 72.66 92.1588 73.36 91.8689C74.0599 91.579 74.6959 91.154 75.2316 90.6183C75.7673 90.0826 76.1923 89.4466 76.4822 88.7467C76.7721 88.0467 76.9213 87.2966 76.9213 86.5389V42.3092C76.9213 40.1851 78.6433 38.4631 80.7674 38.4631C82.8915 38.4631 84.6135 40.1851 84.6135 42.3092V86.5389C84.6135 88.3067 84.2653 90.0572 83.5888 91.6903C82.9123 93.3235 81.9208 94.8075 80.6708 96.0575C79.4208 97.3075 77.9368 98.299 76.3036 98.9755C74.6704 99.652 72.92 100 71.1522 100H13.4612C9.89109 100 6.46718 98.5819 3.9427 96.0575C1.41823 93.533 0 90.1091 0 86.5389V28.848C0 25.2778 1.41823 21.8539 3.9427 19.3294C6.46718 16.805 9.89109 15.3867 13.4612 15.3867H53.7199C55.8441 15.3867 57.566 17.1087 57.566 19.2328C57.566 21.3569 55.8441 23.0789 53.7199 23.0789H13.4612Z" fill="#06A4FD"/>
<path d="M99.0258 1.26206C98.6745 0.876111 98.2487 0.565384 97.7739 0.348657C97.2992 0.13193 96.7855 0.0137044 96.2638 0.0011223C95.7421 -0.0114598 95.2232 0.0818634 94.7386 0.275453C94.254 0.469043 93.8136 0.75888 93.4442 1.12745L90.4707 4.08652C90.1103 4.44712 89.9079 4.93606 89.9079 5.44586C89.9079 5.95566 90.1103 6.4446 90.4707 6.8052L93.1966 9.5263C93.3753 9.70582 93.5877 9.84827 93.8216 9.94547C94.0555 10.0427 94.3062 10.0927 94.5595 10.0927C94.8128 10.0927 95.0636 10.0427 95.2975 9.94547C95.5314 9.84827 95.7438 9.70582 95.9225 9.5263L98.8215 6.64175C100.288 5.17784 100.425 2.79328 99.0258 1.26206ZM84.4588 10.096L41.0656 53.4123C40.8025 53.6744 40.6112 53.9997 40.5103 54.357L38.5031 60.3352C38.455 60.4975 38.4516 60.6696 38.4933 60.8336C38.5349 60.9976 38.62 61.1473 38.7396 61.267C38.8593 61.3866 39.009 61.4717 39.173 61.5134C39.337 61.555 39.5091 61.5516 39.6714 61.5035L45.6448 59.4963C46.0021 59.3954 46.3274 59.2041 46.5895 58.941L89.9058 15.543C90.3065 15.138 90.5313 14.5912 90.5313 14.0214C90.5313 13.4516 90.3065 12.9048 89.9058 12.4998L87.514 10.096C87.1085 9.69159 86.5591 9.4645 85.9864 9.4645C85.4137 9.4645 84.8643 9.69159 84.4588 10.096Z" fill="#06A4FD"/>
</svg>
