<svg width="100" height="94" viewBox="0 0 100 94" fill="none" xmlns="http://www.w3.org/2000/svg">
<path fill-rule="evenodd" clip-rule="evenodd" d="M98.9717 44.1478L54.6191 1.79417C53.2701 0.424738 51.4237 0.0025343 50.013 1.14074e-05C48.5965 -0.0025216 46.7435 0.416248 45.3838 1.79143L1.02834 44.1478C-0.301517 45.4178 -0.347602 47.5227 0.925411 48.8493C2.19842 50.176 4.30847 50.2219 5.63833 48.952L10 44.7869V86.4529C10 88.2168 10.7024 89.9083 11.9526 91.1556C13.2029 92.4028 14.8986 93.1034 16.6667 93.1034H36.6667C38.5076 93.1034 40 91.6147 40 89.7782V61.5135C40 61.0726 40.1756 60.6497 40.4882 60.3379C40.8007 60.0261 41.2246 59.8509 41.6667 59.8509H58.3333C58.7754 59.8509 59.1993 60.0261 59.5118 60.3379C59.8244 60.6497 60 61.0726 60 61.5135V89.7782C60 91.6147 61.4924 93.1034 63.3333 93.1034H83.3333C85.1014 93.1034 86.7971 92.4028 88.0474 91.1556C89.2976 89.9083 90 88.2168 90 86.4529V44.7869L94.3617 48.952C95.6915 50.2219 97.8016 50.176 99.0746 48.8493C100.348 47.5227 100.302 45.4178 98.9717 44.1478ZM83.3333 38.4207L50.0668 6.65341C50.0465 6.65162 50.0244 6.65055 50.0011 6.65051C49.9769 6.65046 49.9541 6.65153 49.9333 6.65335L16.6667 38.4207V86.4529H33.3333V61.5135C33.3333 59.3088 34.2113 57.1943 35.7741 55.6353C37.3369 54.0763 39.4565 53.2004 41.6667 53.2004H58.3333C60.5435 53.2004 62.6631 54.0763 64.2259 55.6353C65.7887 57.1943 66.6667 59.3087 66.6667 61.5135V86.4529H83.3333V38.4207Z" fill="#37B6FE"/>
</svg>
