<svg width="100" height="60" viewBox="0 0 100 60" fill="none" xmlns="http://www.w3.org/2000/svg">
<path d="M0 5.73066C0 2.5657 2.5657 0 5.73066 0H94.2693C97.4343 0 100 2.5657 100 5.73066V53.5817C100 56.7466 97.4343 59.3123 94.2693 59.3123H5.73066C2.5657 59.3123 0 56.7466 0 53.5817V5.73066Z" fill="#69C9FF"/>
<path fill-rule="evenodd" clip-rule="evenodd" d="M8.93783 45.2711C10.5686 36.2208 19.3103 31.6699 27.507 31.6699C35.7037 31.6699 44.4454 36.2208 46.0771 45.271L46.0771 45.2711C46.2238 46.0851 46.0813 46.9567 45.5989 47.6618C45.0945 48.3991 44.263 48.8775 43.2659 48.8775H11.7481C10.751 48.8775 9.91984 48.3987 9.41575 47.6615C8.93368 46.9566 8.79111 46.0852 8.93783 45.2711ZM27.507 34.5379C20.1239 34.5379 13.053 38.5908 11.7576 45.7802L11.7576 45.7802C11.7436 45.8575 11.7464 45.9221 11.7554 45.9692C11.7585 45.9856 11.7622 45.999 11.7658 46.0096H43.2491C43.2527 45.999 43.2564 45.9856 43.2595 45.9691C43.2685 45.9221 43.2713 45.8576 43.2574 45.7803C41.9611 38.5908 34.8901 34.5379 27.507 34.5379Z" fill="white"/>
<path fill-rule="evenodd" clip-rule="evenodd" d="M27.5081 25.532C30.6894 25.532 33.2683 22.953 33.2683 19.7718C33.2683 16.5905 30.6894 14.0116 27.5081 14.0116C24.3268 14.0116 21.7479 16.5905 21.7479 19.7718C21.7479 22.953 24.3268 25.532 27.5081 25.532ZM27.5081 28.3678C32.2555 28.3678 36.1041 24.5192 36.1041 19.7718C36.1041 15.0243 32.2555 11.1758 27.5081 11.1758C22.7607 11.1758 18.9121 15.0243 18.9121 19.7718C18.9121 24.5192 22.7607 28.3678 27.5081 28.3678Z" fill="white"/>
<path fill-rule="evenodd" clip-rule="evenodd" d="M51.004 14.0411V18.3391H88.5398V14.0411H51.004ZM49.5713 11.1758C48.7801 11.1758 48.1387 11.8172 48.1387 12.6084V19.7718C48.1387 20.563 48.7801 21.2044 49.5713 21.2044H89.9725C90.7637 21.2044 91.4051 20.563 91.4051 19.7718V12.6084C91.4051 11.8172 90.7637 11.1758 89.9725 11.1758H49.5713Z" fill="white"/>
<path fill-rule="evenodd" clip-rule="evenodd" d="M52.5 28.9327C52.5 28.1414 53.1414 27.5 53.9327 27.5L89.4627 27.5C90.254 27.5 90.8954 28.1414 90.8954 28.9327C90.8954 29.7239 90.254 30.3653 89.4627 30.3653L53.9327 30.3653C53.1414 30.3653 52.5 29.7239 52.5 28.9327Z" fill="white"/>
<path fill-rule="evenodd" clip-rule="evenodd" d="M59.3125 36.9639C59.3125 36.1727 59.9539 35.5312 60.7452 35.5312L90.2581 35.5312C91.0493 35.5312 91.6907 36.1727 91.6907 36.9639C91.6907 37.7552 91.0493 38.3966 90.2581 38.3966L60.7452 38.3966C59.9539 38.3966 59.3125 37.7552 59.3125 36.9639Z" fill="white"/>
<path fill-rule="evenodd" clip-rule="evenodd" d="M69.3398 45.5577C69.3398 44.7664 69.9813 44.125 70.7725 44.125H90.2567C91.048 44.125 91.6894 44.7664 91.6894 45.5577C91.6894 46.3489 91.048 46.9903 90.2567 46.9903H70.7725C69.9813 46.9903 69.3398 46.3489 69.3398 45.5577Z" fill="white"/>
<path d="M44.1464 46.9622H11.2713L10.332 46.0229V44.1443L11.2713 41.3265L13.1499 37.5693L16.907 35.6907L21.6035 33.8122L25.3606 31.9336L29.1178 32.8729H32.8749L40.3892 36.63L43.2071 41.3265L44.1464 46.9622Z" fill="white"/>
<circle cx="28.1744" cy="20.6647" r="7.51429" fill="white"/>
</svg>
