<svg width="100" height="101" viewBox="0 0 100 101" fill="none" xmlns="http://www.w3.org/2000/svg">
<path d="M50.6994 0.00464995C22.5805 -0.375486 -0.375145 22.6011 0.00464572 50.7456C0.379628 77.7376 22.3378 99.7157 49.3053 100.091C77.429 100.476 100.38 77.4994 99.9952 49.3549C99.6251 22.3581 77.6669 0.379974 50.6994 0.00464995ZM81.0874 78.7385C80.9917 78.8421 80.8743 78.9234 80.7437 78.9766C80.6131 79.0298 80.4723 79.0535 80.3315 79.0462C80.1906 79.0388 80.0531 79.0005 79.9287 78.9341C79.8043 78.8676 79.696 78.7745 79.6116 78.6615C77.4615 75.8459 74.8285 73.4354 71.8355 71.5424C65.7156 67.6111 57.9611 65.4458 50.0023 65.4458C42.0436 65.4458 34.2891 67.6111 28.1692 71.5424C25.1763 73.4346 22.5433 75.8443 20.3931 78.6591C20.3087 78.7721 20.2004 78.8652 20.076 78.9317C19.9516 78.9981 19.814 79.0364 19.6732 79.0438C19.5324 79.0511 19.3916 79.0273 19.261 78.9742C19.1303 78.921 19.013 78.8397 18.9172 78.7361C11.8639 71.115 7.86845 61.1567 7.6966 50.7696C7.30479 27.3576 26.4986 7.76135 49.899 7.7036C73.2994 7.64586 92.3081 26.6647 92.3081 50.0479C92.3161 60.6854 88.3083 70.9332 81.0874 78.7385Z" fill="#47BDFF"/>
<path d="M50.0019 23.0996C45.2617 23.0996 40.9759 24.8776 37.9303 28.1087C34.8848 31.3399 33.3632 35.8077 33.707 40.6027C34.404 50.0459 41.7138 57.7449 50.0019 57.7449C58.29 57.7449 65.5853 50.0459 66.2968 40.6051C66.6526 35.8558 65.143 31.4289 62.047 28.1376C58.9894 24.8896 54.7108 23.0996 50.0019 23.0996Z" fill="#47BDFF"/>
</svg>
