<svg width="100" height="100" viewBox="0 0 100 100" fill="none" xmlns="http://www.w3.org/2000/svg">
<rect width="100" height="100" rx="3" fill="#06A4FD"/>
<path fill-rule="evenodd" clip-rule="evenodd" d="M52.3582 75.007C54.0151 75.007 55.3582 73.6638 55.3582 72.007L55.3582 53.5776H75.5763C77.2332 53.5776 78.5763 52.2344 78.5763 50.5776V49.4347C78.5763 47.7779 77.2332 46.4347 75.5763 46.4347H55.3582L55.3582 24.4355C55.3582 22.7787 54.0151 21.4355 52.3582 21.4355L51.2154 21.4355C49.5585 21.4355 48.2154 22.7787 48.2154 24.4355L48.2154 46.4347H28.0049C26.348 46.4347 25.0049 47.7779 25.0049 49.4347L25.0049 50.5776C25.0049 52.2344 26.348 53.5776 28.0049 53.5776H48.2154L48.2154 72.007C48.2154 73.6638 49.5585 75.007 51.2154 75.007H52.3582Z" fill="white"/>
</svg>
