<svg width="100" height="100" viewBox="0 0 100 100" fill="none" xmlns="http://www.w3.org/2000/svg">
<path d="M50 0C22.4303 0 0 22.4303 0 50C0 77.5697 22.4303 100 50 100C77.5697 100 100 77.5697 100 50C100 22.4303 77.5697 0 50 0ZM76.0216 33.2428L43.7139 71.7043C43.3595 72.1264 42.9186 72.4675 42.4209 72.7043C41.9232 72.9411 41.3804 73.0682 40.8293 73.0769H40.7644C40.2253 73.0767 39.6923 72.9632 39.1999 72.7437C38.7075 72.5242 38.2668 72.2037 37.9062 71.8029L24.0601 56.4183C23.7085 56.0453 23.4349 55.6058 23.2555 55.1256C23.0762 54.6454 22.9946 54.1342 23.0156 53.6221C23.0367 53.1099 23.1598 52.6071 23.378 52.1432C23.5961 51.6793 23.9047 51.2637 24.2857 50.9209C24.6668 50.578 25.1125 50.3147 25.5967 50.1465C26.0809 49.9784 26.5939 49.9087 27.1054 49.9416C27.617 49.9745 28.1168 50.1093 28.5755 50.3381C29.0342 50.567 29.4425 50.8852 29.7764 51.274L40.6635 63.3702L70.1322 28.2957C70.7932 27.5314 71.7284 27.058 72.7357 26.9778C73.7429 26.8975 74.7413 27.2168 75.515 27.8667C76.2887 28.5167 76.7756 29.4449 76.8704 30.4509C76.9652 31.4569 76.6603 32.4598 76.0216 33.2428Z" fill="url(#paint0_linear_505_20)"/>
<defs>
<linearGradient id="paint0_linear_505_20" x1="50" y1="0" x2="50" y2="100" gradientUnits="userSpaceOnUse">
<stop stop-color="#06A4FD"/>
<stop offset="1" stop-color="#0E80EA"/>
</linearGradient>
</defs>
</svg>
