<svg width="100" height="100" viewBox="0 0 100 100" fill="none" xmlns="http://www.w3.org/2000/svg">
<path fill-rule="evenodd" clip-rule="evenodd" d="M25 3.57143C25 1.59898 23.401 0 21.4286 0C19.4561 0 17.8571 1.59898 17.8571 3.57143V7.14518H14.2857C6.39593 7.14518 0 13.5411 0 21.4309V28.5714V85.7166C0 93.6064 6.39593 100.002 14.2857 100.002H85.7143C93.6041 100.002 100 93.6064 100 85.7166V28.5714V21.4309C100 13.5411 93.6041 7.14518 85.7143 7.14518H82.1429V3.57143C82.1429 1.59898 80.5439 0 78.5714 0C76.599 0 75 1.59898 75 3.57143V7.14518H25V3.57143ZM92.8571 25V21.4309C92.8571 17.486 89.6592 14.288 85.7143 14.288H14.2857C10.3408 14.288 7.14286 17.486 7.14286 21.4309V25H92.8571ZM7.14286 32.1429H92.8571V85.7166C92.8571 89.6615 89.6592 92.8595 85.7143 92.8595H14.2857C10.3408 92.8595 7.14286 89.6615 7.14286 85.7166V32.1429Z" fill="#999898"/>
</svg>
