<svg width="100" height="102" viewBox="0 0 100 102" fill="none" xmlns="http://www.w3.org/2000/svg">
<path fill-rule="evenodd" clip-rule="evenodd" d="M19.657 7.6125C26.9305 2.64917 35.4819 0 44.2297 0H44.2299C55.9601 0.000762546 67.2095 4.75994 75.504 13.2307C83.7985 21.7015 88.4586 33.1901 88.4593 45.1696V45.1699C88.4593 54.1037 85.8653 62.8368 81.0053 70.265C76.1453 77.6931 69.2375 83.4826 61.1556 86.9014C53.0737 90.3202 44.1806 91.2148 35.6009 89.4719C27.0212 87.729 19.1402 83.427 12.9546 77.1098C6.76896 70.7927 2.55649 62.7442 0.84988 53.9821C-0.856731 45.22 0.0191637 36.1378 3.3668 27.8841C6.71444 19.6304 12.3835 12.5758 19.657 7.6125ZM44.2294 8.35078C37.0989 8.35083 30.1286 10.5102 24.1999 14.5559C18.271 18.6017 13.6501 24.352 10.9213 31.0798C8.19258 37.8076 7.47861 45.2107 8.86972 52.353C10.2608 59.4952 13.6945 66.0557 18.7366 71.2049C23.7786 76.3542 30.2026 79.8609 37.1961 81.2815C44.1897 82.7022 51.4387 81.9731 58.0264 79.1863C64.6142 76.3996 70.2449 71.6804 74.2064 65.6255C78.1679 59.5707 80.2823 52.4522 80.2824 45.1702M44.2297 8.35078C53.7912 8.35147 62.961 12.2308 69.722 19.1356C76.4831 26.0404 80.2817 35.4051 80.2824 45.1699" fill="#06A4FD"/>
<rect width="14.1373" height="33.7117" rx="7.06867" transform="matrix(0.677803 -0.735243 0.720851 0.69309 66.1162 77.8379)" fill="#06A4FD"/>
</svg>
